<svg width="178" height="38" viewBox="0 0 178 38" fill="none" xmlns="http://www.w3.org/2000/svg">
<circle cx="24" cy="19" r="16" fill="#E30016"/>
<path d="M17.5187 22.9801C16.9261 22.9283 16.5025 22.7346 16.2479 22.3991C16.004 22.0547 15.9024 21.6493 15.9432 21.183C15.961 20.9789 16.0053 20.7528 16.076 20.5044C16.1475 20.2463 16.2182 19.998 16.288 19.7594C16.3675 19.5216 16.42 19.3695 16.4454 19.3032C16.5528 18.97 16.655 18.6412 16.7519 18.3168C16.8488 17.9925 16.9062 17.7283 16.9241 17.5242C16.9674 17.0288 16.8142 16.7657 16.4645 16.7351C16.2119 16.713 15.9774 16.8198 15.761 17.0554C15.5454 17.2813 15.3619 17.5883 15.2105 17.9764L13.8103 22.5676L11.7118 22.384L14.6918 12.6593L16.8741 12.5565L15.7659 16.16C16.2992 15.6585 16.8914 15.4362 17.5423 15.4931C18.0378 15.5365 18.4194 15.7069 18.687 16.0045C18.9547 16.302 19.0643 16.7276 19.0158 17.2814C18.9912 17.5631 18.9295 17.8759 18.8309 18.2197C18.7332 18.5538 18.5995 18.9631 18.4298 19.4475C18.3258 19.7419 18.227 20.0318 18.1335 20.3173C18.0505 20.5939 18.0018 20.8148 17.9874 20.98C17.9704 21.1743 18.0009 21.3287 18.079 21.4432C18.1571 21.5578 18.303 21.6244 18.5168 21.6431C18.8082 21.6686 19.0503 21.587 19.243 21.3982C19.4366 21.1998 19.6399 20.8896 19.8531 20.4677L20.4651 20.5213C20.0122 21.5585 19.5315 22.2409 19.0232 22.5684C18.5254 22.8871 18.0239 23.0243 17.5187 22.9801ZM21.6994 23.3459C20.9805 23.283 20.438 23.0495 20.072 22.6455C19.7068 22.2318 19.5591 21.6266 19.6288 20.8299C19.6874 20.1596 19.8832 19.4327 20.216 18.6493C20.5489 17.8658 21.0371 17.2086 21.6808 16.6775C22.3252 16.1368 23.1041 15.9063 24.0173 15.9862C25.086 16.0797 25.5796 16.5928 25.498 17.5255C25.4504 18.0695 25.2511 18.5562 24.9003 18.9857C24.5495 19.4151 24.1043 19.7481 23.5647 19.9848C23.026 20.2118 22.4635 20.3192 21.8772 20.3071C21.8322 20.5969 21.8055 20.7903 21.797 20.8875C21.7554 21.3635 21.8095 21.6962 21.9594 21.8855C22.1101 22.0651 22.37 22.1711 22.7392 22.2034C23.2638 22.2493 23.7213 22.1669 24.1118 21.9564C24.5119 21.7466 24.9571 21.4136 25.4474 20.9572L25.9428 21.0005C24.7072 22.7035 23.2927 23.4853 21.6994 23.3459ZM22.055 19.6178C22.4161 19.6298 22.7672 19.5333 23.1082 19.3281C23.4589 19.1239 23.7472 18.8505 23.9729 18.508C24.2084 18.1664 24.3436 17.7965 24.3784 17.3981C24.4132 16.9998 24.3092 16.79 24.0664 16.7688C23.7166 16.7382 23.3449 17.014 22.9514 17.5963C22.5675 18.1795 22.2687 18.8533 22.055 19.6178ZM26.6511 23.7791C26.1848 23.7383 25.8187 23.5594 25.5527 23.2425C25.2965 22.9264 25.1938 22.4769 25.2448 21.894C25.2661 21.6511 25.3326 21.3387 25.4443 20.9569L27.6423 13.7923L29.8246 13.6895L27.4603 21.4123C27.4087 21.5546 27.3756 21.7084 27.3612 21.8735C27.3442 22.0678 27.3756 22.2125 27.4554 22.3076C27.5457 22.3938 27.6978 22.4463 27.9115 22.465C28.1932 22.4897 28.4657 22.396 28.729 22.1841C28.9932 21.9625 29.1952 21.6669 29.3353 21.2973L29.9473 21.3509C29.4961 22.3687 28.9721 23.0424 28.3755 23.372C27.7797 23.6919 27.2049 23.8276 26.6511 23.7791ZM30.8934 16.1766L32.9919 16.3602L32.6631 17.4328C33.1854 17.0575 33.7721 16.8984 34.423 16.9553C34.967 17.0029 35.3836 17.2205 35.6728 17.608C35.962 17.9955 36.0708 18.5973 35.9994 19.4134C35.9323 20.1809 35.7526 20.9483 35.4603 21.7157C35.1688 22.4734 34.7317 23.1057 34.1489 23.6128C33.567 24.1101 32.8388 24.3205 31.9644 24.244C31.3427 24.1896 30.9451 23.9786 30.7716 23.611L29.7028 27.1005L27.4564 27.4326L30.8934 16.1766ZM31.6236 22.9366C32.0899 22.9774 32.4928 22.7924 32.8322 22.3816C33.1814 21.9716 33.4503 21.4714 33.639 20.8809C33.8383 20.2816 33.9609 19.7196 34.0068 19.195C34.0773 18.3886 33.8697 17.9642 33.384 17.9217C33.2091 17.9064 33.0238 17.9538 32.8282 18.064C32.6423 18.175 32.4715 18.3362 32.3159 18.5478L31.0992 22.553C31.1573 22.7832 31.3321 22.9111 31.6236 22.9366Z" fill="white"/>
<path d="M55.018 24.234L56.778 11.672L56.052 10.858H61.068L60.254 16.71H67.36L67.074 18.8H59.946L59.198 24.234H66.722L66.436 26.324H48.88L49.166 24.234H55.018ZM81.0423 10.858L80.4923 11.76H88.1703L87.8843 13.74H79.3043L78.7983 14.554H87.4663L86.9603 18.228H87.8623L87.5763 20.252H86.6743L86.4103 22.1H86.9823L86.7183 23.992H86.1463L85.9703 25.18C85.9116 25.6053 85.7576 25.9647 85.5083 26.258C85.2589 26.5367 84.9876 26.676 84.6943 26.676H77.8083L79.8543 24.674H82.8023L82.9123 23.992H75.0583L75.5863 20.252H74.2663L74.5523 18.228H75.8723L76.2023 15.852H74.4423L77.1043 11.628L76.3563 10.858H81.0423ZM68.5463 26.676L70.5263 20.45H73.8043L71.8463 26.676H68.5463ZM70.5703 19.614L70.3723 15.852H73.6503L73.8703 19.614H70.5703ZM71.2083 15.038L71.0103 11.276H74.2883L74.5083 15.038H71.2083ZM79.1063 18.338H80.2503L80.1183 16.93H82.7143L82.8463 18.338H83.7043L83.9683 16.402H79.3703L79.1063 18.338ZM83.4403 20.142H78.8423L78.5783 22.122H79.8323L79.6783 20.67H82.3843L82.5383 22.122H83.1763L83.4403 20.142ZM100.027 24.124L100.467 22.342H90.1486L93.5806 13.366H91.3806L91.6886 11.254H108.387L108.079 13.366H97.5406L96.9246 14.928H106.363L104.317 24.124H107.463L107.155 26.236H88.7846L89.0926 24.124H100.027ZM95.1206 20.186H101.039L101.853 17.084H96.2646L95.1206 20.186ZM109.463 24.674L111.223 12.156L110.629 11.452H119.363L117.625 23.86L118.109 23.816L117.823 25.818L108.913 26.654L109.177 24.696L109.463 24.674ZM120.573 15.456H119.649L119.957 13.366H121.079L121.497 11.606L120.837 10.88H124.951L124.357 13.366H128.735L127.063 25.246C126.99 25.6713 126.792 26.016 126.469 26.28C126.146 26.544 125.772 26.676 125.347 26.676H121.607L123.543 24.674L124.841 15.456H123.851L121.167 26.676H117.889L120.573 15.456ZM112.697 24.344L114.391 24.19L114.721 21.858H113.049L112.697 24.344ZM113.335 19.812H115.007L115.293 17.678H113.643L113.335 19.812ZM113.929 15.61H115.579L115.887 13.498H114.237L113.929 15.61ZM132.275 12.09L131.571 11.276H148.269L147.631 15.852H135.927L135.817 16.71H147.521L148.467 15.874L148.049 18.8H144.705L144.595 19.636H148.357L148.071 21.726H144.287L143.803 25.246C143.744 25.6713 143.554 26.0233 143.231 26.302C142.908 26.566 142.534 26.698 142.109 26.698H137.753L139.711 24.652L140.107 21.726H129.679L129.965 19.636H140.415L140.525 18.8H131.329L132.275 12.09ZM137.137 25.07H132.957L132.495 22.364H136.675L137.137 25.07ZM136.279 13.366L136.191 13.982H143.715L143.803 13.366H136.279ZM150.599 19.856H150.181L150.489 17.7H150.973L151.699 13.454L151.523 12.068H153.525L153.877 11.254L153.657 10.88H156.957L156.407 12.068H159.245L158.453 17.7H158.959L158.651 19.856H158.145L157.309 25.906C157.265 26.1553 157.17 26.346 157.023 26.478C156.877 26.5953 156.708 26.654 156.517 26.654H153.371L154.779 25.136L155.527 19.856H153.107L151.963 26.654H149.433L150.599 19.856ZM162.985 26.676L164.195 18.184H162.765L160.763 26.676H157.573L159.971 15.852H167.759L166.571 24.19H167.187L168.089 23.354L167.605 26.676H162.985ZM162.655 12.706L162.809 11.716L162.259 10.88H166.725L166.439 12.706H169.189L168.881 14.818H159.223L159.531 12.706H162.655ZM153.481 17.7H155.835L156.363 13.982H154.119L153.481 17.7ZM153.173 20.45H154.911L154.757 23.816H152.953L153.173 20.45ZM154.119 14.598H155.857L155.813 17.128H154.009L154.119 14.598Z" fill="white"/>
</svg>
