<svg width="36" height="36" viewBox="0 0 36 36" fill="none" xmlns="http://www.w3.org/2000/svg">
<circle cx="18" cy="18" r="16" fill="#E30016"/>
<path d="M11.5187 21.9801C10.9261 21.9283 10.5025 21.7346 10.2479 21.3991C10.004 21.0547 9.90238 20.6493 9.94317 20.183C9.96102 19.9789 10.0053 19.7528 10.076 19.5044C10.1475 19.2463 10.2182 18.998 10.288 18.7594C10.3675 18.5216 10.42 18.3695 10.4454 18.3032C10.5528 17.97 10.655 17.6412 10.7519 17.3168C10.8488 16.9925 10.9062 16.7283 10.9241 16.5242C10.9674 16.0288 10.8142 15.7657 10.4645 15.7351C10.2119 15.713 9.97737 15.8198 9.76097 16.0554C9.54541 16.2813 9.36192 16.5883 9.21049 16.9764L7.81027 21.5676L5.71177 21.384L8.69181 11.6593L10.8741 11.5565L9.76588 15.16C10.2992 14.6585 10.8914 14.4362 11.5423 14.4931C12.0378 14.5365 12.4194 14.7069 12.687 15.0045C12.9547 15.302 13.0643 15.7276 13.0158 16.2814C12.9912 16.5631 12.9295 16.8759 12.8309 17.2197C12.7332 17.5538 12.5995 17.9631 12.4298 18.4475C12.3258 18.7419 12.227 19.0318 12.1335 19.3173C12.0505 19.5939 12.0018 19.8148 11.9874 19.98C11.9704 20.1743 12.0009 20.3287 12.079 20.4432C12.1571 20.5578 12.303 20.6244 12.5168 20.6431C12.8082 20.6686 13.0503 20.587 13.243 20.3982C13.4366 20.1998 13.6399 19.8896 13.8531 19.4677L14.4651 19.5213C14.0122 20.5585 13.5315 21.2409 13.0232 21.5684C12.5254 21.8871 12.0239 22.0243 11.5187 21.9801ZM15.6994 22.3459C14.9805 22.283 14.438 22.0495 14.072 21.6455C13.7068 21.2318 13.5591 20.6266 13.6288 19.8299C13.6874 19.1596 13.8832 18.4327 14.216 17.6493C14.5489 16.8658 15.0371 16.2086 15.6808 15.6775C16.3252 15.1368 17.1041 14.9063 18.0173 14.9862C19.086 15.0797 19.5796 15.5928 19.498 16.5255C19.4504 17.0695 19.2511 17.5562 18.9003 17.9857C18.5495 18.4151 18.1043 18.7481 17.5647 18.9848C17.026 19.2118 16.4635 19.3192 15.8772 19.3071C15.8322 19.5969 15.8055 19.7903 15.797 19.8875C15.7554 20.3635 15.8095 20.6962 15.9594 20.8855C16.1101 21.0651 16.37 21.1711 16.7392 21.2034C17.2638 21.2493 17.7213 21.1669 18.1118 20.9564C18.5119 20.7466 18.9571 20.4136 19.4474 19.9572L19.9428 20.0005C18.7072 21.7035 17.2927 22.4853 15.6994 22.3459ZM16.055 18.6178C16.4161 18.6298 16.7672 18.5333 17.1082 18.3281C17.4589 18.1239 17.7472 17.8505 17.9729 17.508C18.2084 17.1664 18.3436 16.7965 18.3784 16.3981C18.4132 15.9998 18.3092 15.79 18.0664 15.7688C17.7166 15.7382 17.3449 16.014 16.9514 16.5963C16.5675 17.1795 16.2687 17.8533 16.055 18.6178ZM20.6511 22.7791C20.1848 22.7383 19.8187 22.5594 19.5527 22.2425C19.2965 21.9264 19.1938 21.4769 19.2448 20.894C19.2661 20.6511 19.3326 20.3387 19.4443 19.9569L21.6423 12.7923L23.8246 12.6895L21.4603 20.4123C21.4087 20.5546 21.3756 20.7084 21.3612 20.8735C21.3442 21.0678 21.3756 21.2125 21.4554 21.3076C21.5457 21.3938 21.6978 21.4463 21.9115 21.465C22.1932 21.4897 22.4657 21.396 22.729 21.1841C22.9932 20.9625 23.1952 20.6669 23.3353 20.2973L23.9473 20.3509C23.4961 21.3687 22.9721 22.0424 22.3755 22.372C21.7797 22.6919 21.2049 22.8276 20.6511 22.7791ZM24.8934 15.1766L26.9919 15.3602L26.6631 16.4328C27.1854 16.0575 27.7721 15.8984 28.423 15.9553C28.967 16.0029 29.3836 16.2205 29.6728 16.608C29.962 16.9955 30.0708 17.5973 29.9994 18.4134C29.9323 19.1809 29.7526 19.9483 29.4603 20.7157C29.1688 21.4734 28.7317 22.1057 28.1489 22.6128C27.567 23.1101 26.8388 23.3205 25.9644 23.244C25.3427 23.1896 24.9451 22.9786 24.7716 22.611L23.7028 26.1005L21.4564 26.4326L24.8934 15.1766ZM25.6236 21.9366C26.0899 21.9774 26.4928 21.7924 26.8322 21.3816C27.1814 20.9716 27.4503 20.4714 27.639 19.8809C27.8383 19.2816 27.9609 18.7196 28.0068 18.195C28.0773 17.3886 27.8697 16.9642 27.384 16.9217C27.2091 16.9064 27.0238 16.9538 26.8282 17.064C26.6423 17.175 26.4715 17.3362 26.3159 17.5478L25.0992 21.553C25.1573 21.7832 25.3321 21.9111 25.6236 21.9366Z" fill="white"/>
</svg>
